<?xml version="1.0" standalone="yes"?>
<svg xmlns="http://www.w3.org/2000/svg" width="500" height="500">
<path style="fill:#010101; stroke:none;" d="M0 0L0 500L500 500L500 0L0 0z"/>
<path style="fill:#f8e5d8; stroke:none;" d="M94 185L94 186L97 186L94 185z"/>
<path style="fill:#ff9348; stroke:none;" d="M97.0008 185.483C84.8393 188.157 90 218.141 90 228L90 286C90 291.654 87.8402 303.084 91.6034 307.697C96.7467 314.001 120.71 312.292 127.985 310.467C140.225 307.397 135 275.863 135 266L135 209C135 203.206 137.005 192.182 132.436 187.703C126.658 182.039 104.454 183.844 97.0008 185.483z"/>
<path style="fill:#f8e5d8; stroke:none;" d="M128 185L128 186L131 186L128 185M369 185L369 186L372 186L369 185z"/>
<path style="fill:#ff9348; stroke:none;" d="M372.004 185.483C359.869 188.17 365 218.244 365 228L365 286C365 291.819 362.903 302.889 366.742 307.697C371.796 314.024 395.762 312.256 402.995 310.467C415.285 307.428 410 276.023 410 266L410 210C410 204.107 412.03 193.324 408.142 188.419C402.98 181.906 379.43 183.838 372.004 185.483z"/>
<path style="fill:#f8e5d8; stroke:none;" d="M403 185L403 186L406 186L403 185M92 186L93 187L92 186M131.667 186.333L132.333 186.667L131.667 186.333M367 186L368 187L367 186M406.667 186.333L407.333 186.667L406.667 186.333M90 187L90 189L92 187L90 187M133 187L134 188L133 187M366 187L367 188L366 187M408 187L409 188L408 187M365.333 188.667L365.667 189.333L365.333 188.667M409 188L409 191L410 191L409 188M134 189L134 192L135 192L134 189M89 190L89 306L90 306L90 225L89 190M364 192L364 304L365 304L365 226L364 192M420 202L421 203L420 202M58.6667 203.333L59.3333 203.667L58.6667 203.333z"/>
<path style="fill:#ff9348; stroke:none;" d="M81 284L81 249L81 227C81 221.111 83.0231 210.656 80.3966 205.318C77.8456 200.134 58.863 202.274 55.7423 206.279C52.5613 210.361 54 218.147 54 223L54 264C54 269.079 52.3918 277.593 56.4336 281.486C61.5727 286.436 74.412 284 81 284z"/>
<path style="fill:#f8e5d8; stroke:none;" d="M80 203L81 204L80 203M418 203L418 284L419 284L419 228L418 203z"/>
<path style="fill:#ff9348; stroke:none;" d="M419 203L419 284C425.476 284 438.509 286.463 443.486 281.486C447.337 277.636 446 269.929 446 265L446 223C446 217.986 447.536 209.533 443.486 205.703C438.162 200.668 425.727 203 419 203z"/>
<path style="fill:#f8e5d8; stroke:none;" d="M439 203L439 204L442 204L439 203M56 204L57 205L56 204M442.667 204.333L443.333 204.667L442.667 204.333M55 205L56 206L55 205M444 205L445 206L444 205M54.3333 206.667L54.6667 207.333L54.3333 206.667M445 206L445 209L446 209L445 206M217.667 218.333L218.333 218.667L217.667 218.333z"/>
<path style="fill:#8f9094; stroke:none;" d="M219.667 218.333L220.333 218.667L219.667 218.333z"/>
<path style="fill:#585a60; stroke:none;" d="M221 218L221 219L224 219L221 218z"/>
<path style="fill:#8f9094; stroke:none;" d="M224.667 218.333L225.333 218.667L224.667 218.333z"/>
<path style="fill:#f8e5d8; stroke:none;" d="M226.667 218.333L227.333 218.667L226.667 218.333M215 219L216 220L215 219z"/>
<path style="fill:#8f9094; stroke:none;" d="M216 219L217 220L216 219z"/>
<path style="fill:#585a60; stroke:none;" d="M217 219L218 220L217 219M227 219L228 220L227 219z"/>
<path style="fill:#8f9094; stroke:none;" d="M228 219L229 220L228 219z"/>
<path style="fill:#f8e5d8; stroke:none;" d="M229 219L230 220L229 219M213 220L210 224L213 220z"/>
<path style="fill:#8f9094; stroke:none;" d="M214 220L215 221L214 220z"/>
<path style="fill:#585a60; stroke:none;" d="M229 220L230 221L229 220z"/>
<path style="fill:#8f9094; stroke:none;" d="M230 220L231 221L230 220z"/>
<path style="fill:#f8e5d8; stroke:none;" d="M231 220L233 222L231 220z"/>
<path style="fill:#585a60; stroke:none;" d="M213 221L214 222L213 221M231 221L232 222L231 221M212 222L213 223L212 222M232 222L229 226L232 222M211 223L212 224L211 223z"/>
<path style="fill:#f8e5d8; stroke:none;" d="M232 223L233 224L232 223M269.667 223.333L270.333 223.667L269.667 223.333M281 223L281 224L284 224L281 223z"/>
<path style="fill:#8f9094; stroke:none;" d="M210 224L211 225L210 224z"/>
<path style="fill:#585a60; stroke:none;" d="M219 224L220 225L219 224z"/>
<path style="fill:#f8e5d8; stroke:none;" d="M220.667 224.333L221.333 224.667L220.667 224.333M223.667 224.333L224.333 224.667L223.667 224.333z"/>
<path style="fill:#8f9094; stroke:none;" d="M225 224L226 225L225 224z"/>
<path style="fill:#585a60; stroke:none;" d="M226 224L227 225L226 224z"/>
<path style="fill:#f8e5d8; stroke:none;" d="M231 224L232 225L231 224z"/>
<path style="fill:#8f9094; stroke:none;" d="M234.333 224.667L234.667 225.333L234.333 224.667z"/>
<path style="fill:#585a60; stroke:none;" d="M235 224L235 225L241 225L235 224z"/>
<path style="fill:#f8e5d8; stroke:none;" d="M241 224L242 225L241 224M249 224L250 225L249 224z"/>
<path style="fill:#585a60; stroke:none;" d="M250 224L250 225L256 226L250 224z"/>
<path style="fill:#f8e5d8; stroke:none;" d="M256.333 224.667L256.667 225.333L256.333 224.667z"/>
<path style="fill:#585a60; stroke:none;" d="M258 224L258 243L259 243L259 225L264 225L258 224z"/>
<path style="fill:#8f9094; stroke:none;" d="M264.333 224.667L264.667 225.333L264.333 224.667M266 224L267 225L266 224z"/>
<path style="fill:#585a60; stroke:none;" d="M267.667 224.333L268.333 224.667L267.667 224.333M271.667 224.333L272.333 224.667L271.667 224.333z"/>
<path style="fill:#8f9094; stroke:none;" d="M273 224L274 225L273 224z"/>
<path style="fill:#f8e5d8; stroke:none;" d="M278 224L279 225L278 224z"/>
<path style="fill:#8f9094; stroke:none;" d="M279 224L280 225L279 224z"/>
<path style="fill:#585a60; stroke:none;" d="M280 224L281 225L280 224M284 224L285 225L284 224z"/>
<path style="fill:#8f9094; stroke:none;" d="M285 224L286 225L285 224z"/>
<path style="fill:#f8e5d8; stroke:none;" d="M286 224L287 225L286 224M209 225L210 226L209 225z"/>
<path style="fill:#585a60; stroke:none;" d="M210 225L211 226L210 225M217 225L218 226L217 225z"/>
<path style="fill:#f8e5d8; stroke:none;" d="M218 225L219 226L218 225M226 225L227 226L226 225z"/>
<path style="fill:#8f9094; stroke:none;" d="M227 225L228 226L227 225z"/>
<path style="fill:#f8e5d8; stroke:none;" d="M230 225L231 226L230 225z"/>
<path style="fill:#010101; stroke:none;" d="M235 225L243 244L235 248C247.42 252.975 253.291 234.615 255 225C248.685 225.503 247.84 231.116 245 236C242.989 230.055 241.958 225.231 235 225z"/>
<path style="fill:#8f9094; stroke:none;" d="M241 225L242 226L241 225M249 225L250 226L249 225z"/>
<path style="fill:#585a60; stroke:none;" d="M265 225L266 226L265 225M274 225L276 227L274 225z"/>
<path style="fill:#f8e5d8; stroke:none;" d="M275 225L276 226L275 225z"/>
<path style="fill:#8f9094; stroke:none;" d="M277 225L278 226L277 225M287 225L288 226L287 225M209 226L210 227L209 226z"/>
<path style="fill:#f8e5d8; stroke:none;" d="M217 226L218 227L217 226z"/>
<path style="fill:#8f9094; stroke:none;" d="M228 226L229 227L228 226z"/>
<path style="fill:#f8e5d8; stroke:none;" d="M229 226L230 227L229 226M234 226L235 227L234 226z"/>
<path style="fill:#585a60; stroke:none;" d="M235 226L236 227L235 226M241 226L242 227L241 226M249 226L250 227L249 226z"/>
<path style="fill:#8f9094; stroke:none;" d="M255 226L256 227L255 226M276 226L277 227L276 226M288 226L289 227L288 226z"/>
<path style="fill:#585a60; stroke:none;" d="M209.333 227.667L209.667 228.333L209.333 227.667z"/>
<path style="fill:#8f9094; stroke:none;" d="M216 227L217 228L216 227M235 227L236 228L235 227z"/>
<path style="fill:#f8e5d8; stroke:none;" d="M242 227L243 228L242 227M248 227L249 228L248 227M255 227L256 228L255 227M289 227L290 228L289 227M216.333 228.667L216.667 229.333L216.333 228.667M235 228L236 229L235 228z"/>
<path style="fill:#8f9094; stroke:none;" d="M242 228L243 229L242 228M248 228L249 229L248 228z"/>
<path style="fill:#585a60; stroke:none;" d="M254 228L255 229L254 228z"/>
<path style="fill:#8f9094; stroke:none;" d="M289 228L290 229L289 228z"/>
<path style="fill:#f8e5d8; stroke:none;" d="M208 229L208 232L209 232L208 229z"/>
<path style="fill:#585a60; stroke:none;" d="M236 229L237 230L236 229M242 229L243 230L242 229z"/>
<path style="fill:#f8e5d8; stroke:none;" d="M243 229L244 230L243 229M247 229L248 230L247 229z"/>
<path style="fill:#585a60; stroke:none;" d="M248 229L249 230L248 229z"/>
<path style="fill:#f8e5d8; stroke:none;" d="M254 229L255 230L254 229z"/>
<path style="fill:#585a60; stroke:none;" d="M266 229L265 231L266 229z"/>
<path style="fill:#8f9094; stroke:none;" d="M267.667 229.333L268.333 229.667L267.667 229.333z"/>
<path style="fill:#585a60; stroke:none;" d="M269 229L271 231L269 229M279 229L280 230L279 229z"/>
<path style="fill:#8f9094; stroke:none;" d="M280 229L281 230L280 229z"/>
<path style="fill:#585a60; stroke:none;" d="M281 229L282 230L281 229M289 229L290 230L289 229M215.333 230.667L215.667 231.333L215.333 230.667z"/>
<path style="fill:#8f9094; stroke:none;" d="M226 230L226 237L227 237L226 230z"/>
<path style="fill:#585a60; stroke:none;" d="M227 230L227 231L232 231L227 230z"/>
<path style="fill:#8f9094; stroke:none;" d="M232 230L232 240L233 240L232 230z"/>
<path style="fill:#f8e5d8; stroke:none;" d="M236 230L237 231L236 230z"/>
<path style="fill:#8f9094; stroke:none;" d="M243 230L244 231L243 230M247 230L248 231L247 230z"/>
<path style="fill:#585a60; stroke:none;" d="M253 230L254 231L253 230z"/>
<path style="fill:#f8e5d8; stroke:none;" d="M266 230L267 231L266 230M269 230L270 231L269 230z"/>
<path style="fill:#8f9094; stroke:none;" d="M278 230L279 231L278 230z"/>
<path style="fill:#f8e5d8; stroke:none;" d="M282 230L283 231L282 230M290 230L290 243L291 243L290 230z"/>
<path style="fill:#585a60; stroke:none;" d="M237 231L238 232L237 231M243 231L244 232L243 231M247 231L248 232L247 231z"/>
<path style="fill:#8f9094; stroke:none;" d="M253 231L254 232L253 231z"/>
<path style="fill:#f8e5d8; stroke:none;" d="M265 231L266 232L265 231z"/>
<path style="fill:#8f9094; stroke:none;" d="M270 231L271 232L270 231z"/>
<path style="fill:#585a60; stroke:none;" d="M277 231L278 232L277 231M283 231L284 232L283 231z"/>
<path style="fill:#f8e5d8; stroke:none;" d="M216 232L217 233L216 232z"/>
<path style="fill:#8f9094; stroke:none;" d="M237 232L238 233L237 232z"/>
<path style="fill:#f8e5d8; stroke:none;" d="M244 232L245 233L244 232M246 232L247 233L246 232z"/>
<path style="fill:#585a60; stroke:none;" d="M252 232L253 233L252 232z"/>
<path style="fill:#f8e5d8; stroke:none;" d="M253 232L254 233L253 232z"/>
<path style="fill:#585a60; stroke:none;" d="M264 232L264 243L265 243L264 232z"/>
<path style="fill:#f8e5d8; stroke:none;" d="M270 232L270 243L271 243L270 232z"/>
<path style="fill:#8f9094; stroke:none;" d="M277 232L277 243L278 243L277 232M283 232L283 243L284 243L283 232z"/>
<path style="fill:#585a60; stroke:none;" d="M209 233L210 234L209 233z"/>
<path style="fill:#8f9094; stroke:none;" d="M216 233L217 234L216 233z"/>
<path style="fill:#f8e5d8; stroke:none;" d="M237 233L238 234L237 233z"/>
<path style="fill:#585a60; stroke:none;" d="M238 233L239 234L238 233z"/>
<path style="fill:#8f9094; stroke:none;" d="M244 233L245 234L244 233z"/>
<path style="fill:#585a60; stroke:none;" d="M246 233L247 234L246 233z"/>
<path style="fill:#8f9094; stroke:none;" d="M252 233L253 234L252 233M209 234L210 235L209 234z"/>
<path style="fill:#585a60; stroke:none;" d="M216 234L217 235L216 234z"/>
<path style="fill:#f8e5d8; stroke:none;" d="M217 234L218 235L217 234z"/>
<path style="fill:#8f9094; stroke:none;" d="M238 234L239 235L238 234z"/>
<path style="fill:#585a60; stroke:none;" d="M244 234L246 236L244 234z"/>
<path style="fill:#f8e5d8; stroke:none;" d="M245 234L246 235L245 234M252 234L253 235L252 234M209 235L210 236L209 235z"/>
<path style="fill:#8f9094; stroke:none;" d="M217 235L218 236L217 235z"/>
<path style="fill:#f8e5d8; stroke:none;" d="M238 235L239 236L238 235z"/>
<path style="fill:#585a60; stroke:none;" d="M251 235L252 236L251 235M210 236L211 237L210 236z"/>
<path style="fill:#8f9094; stroke:none;" d="M218 236L219 237L218 236z"/>
<path style="fill:#f8e5d8; stroke:none;" d="M219 236L220 237L219 236z"/>
<path style="fill:#585a60; stroke:none;" d="M239 236L240 237L239 236z"/>
<path style="fill:#8f9094; stroke:none;" d="M251 236L252 237L251 236z"/>
<path style="fill:#f8e5d8; stroke:none;" d="M210 237L211 238L210 237z"/>
<path style="fill:#585a60; stroke:none;" d="M219 237L220 238L219 237z"/>
<path style="fill:#8f9094; stroke:none;" d="M220.667 237.333L221.333 237.667L220.667 237.333z"/>
<path style="fill:#f8e5d8; stroke:none;" d="M222.667 237.333L223.333 237.667L222.667 237.333z"/>
<path style="fill:#8f9094; stroke:none;" d="M224 237L225 238L224 237z"/>
<path style="fill:#585a60; stroke:none;" d="M225 237L226 238L225 237z"/>
<path style="fill:#f8e5d8; stroke:none;" d="M239.333 237.667L239.667 238.333L239.333 237.667z"/>
<path style="fill:#585a60; stroke:none;" d="M250 237L251 238L250 237z"/>
<path style="fill:#f8e5d8; stroke:none;" d="M251 237L252 238L251 237z"/>
<path style="fill:#8f9094; stroke:none;" d="M211 238L212 239L211 238z"/>
<path style="fill:#585a60; stroke:none;" d="M240 238L241 239L240 238z"/>
<path style="fill:#8f9094; stroke:none;" d="M250 238L251 239L250 238z"/>
<path style="fill:#f8e5d8; stroke:none;" d="M211 239L213 241L211 239z"/>
<path style="fill:#585a60; stroke:none;" d="M212 239L213 240L212 239z"/>
<path style="fill:#8f9094; stroke:none;" d="M240 239L241 240L240 239z"/>
<path style="fill:#f8e5d8; stroke:none;" d="M250 239L251 240L250 239z"/>
<path style="fill:#8f9094; stroke:none;" d="M213 240L214 241L213 240z"/>
<path style="fill:#585a60; stroke:none;" d="M231 240L232 241L231 240z"/>
<path style="fill:#f8e5d8; stroke:none;" d="M232 240L233 241L232 240M240 240L241 241L240 240z"/>
<path style="fill:#585a60; stroke:none;" d="M241 240L242 241L241 240M249 240L250 241L249 240z"/>
<path style="fill:#8f9094; stroke:none;" d="M214 241L215 242L214 241z"/>
<path style="fill:#585a60; stroke:none;" d="M215 241L216 242L215 241M229 241L230 242L229 241z"/>
<path style="fill:#8f9094; stroke:none;" d="M230 241L231 242L230 241z"/>
<path style="fill:#f8e5d8; stroke:none;" d="M231 241L232 242L231 241z"/>
<path style="fill:#8f9094; stroke:none;" d="M241 241L242 242L241 241z"/>
<path style="fill:#f8e5d8; stroke:none;" d="M249 241L250 242L249 241M215 242L216 243L215 242z"/>
<path style="fill:#8f9094; stroke:none;" d="M216 242L217 243L216 242z"/>
<path style="fill:#585a60; stroke:none;" d="M217 242L218 243L217 242M226.667 242.333L227.333 242.667L226.667 242.333z"/>
<path style="fill:#8f9094; stroke:none;" d="M228 242L229 243L228 242z"/>
<path style="fill:#f8e5d8; stroke:none;" d="M229 242L230 243L229 242M241.333 242.667L241.667 243.333L241.333 242.667z"/>
<path style="fill:#585a60; stroke:none;" d="M248 242L249 243L248 242z"/>
<path style="fill:#f8e5d8; stroke:none;" d="M218.667 243.333L219.333 243.667L218.667 243.333z"/>
<path style="fill:#8f9094; stroke:none;" d="M220 243L220 244L225 244L220 243z"/>
<path style="fill:#f8e5d8; stroke:none;" d="M225.667 243.333L226.333 243.667L225.667 243.333M236 243L237 244L236 243z"/>
<path style="fill:#585a60; stroke:none;" d="M242 243L243 244L242 243z"/>
<path style="fill:#8f9094; stroke:none;" d="M248 243L249 244L248 243z"/>
<path style="fill:#585a60; stroke:none;" d="M236.667 244.333L237.333 244.667L236.667 244.333z"/>
<path style="fill:#8f9094; stroke:none;" d="M238 244L239 245L238 244z"/>
<path style="fill:#f8e5d8; stroke:none;" d="M239 244L240 245L239 244z"/>
<path style="fill:#8f9094; stroke:none;" d="M240 244L241 245L240 244z"/>
<path style="fill:#585a60; stroke:none;" d="M241 244L242 245L241 244M247 244L248 245L247 244z"/>
<path style="fill:#f8e5d8; stroke:none;" d="M248 244L249 245L248 244M235 245L236 246L235 245z"/>
<path style="fill:#8f9094; stroke:none;" d="M247 245L248 246L247 245z"/>
<path style="fill:#585a60; stroke:none;" d="M235 246L236 247L235 246M246 246L244 249L246 246z"/>
<path style="fill:#f8e5d8; stroke:none;" d="M247 246L248 247L247 246M234 247L235 248L234 247M246 247L247 248L246 247z"/>
<path style="fill:#8f9094; stroke:none;" d="M234 248L235 249L234 248z"/>
<path style="fill:#585a60; stroke:none;" d="M235 248L236 249L235 248z"/>
<path style="fill:#f8e5d8; stroke:none;" d="M245 248L246 249L245 248M235 249L236 250L235 249z"/>
<path style="fill:#8f9094; stroke:none;" d="M236 249L237 250L236 249z"/>
<path style="fill:#585a60; stroke:none;" d="M237.667 249.333L238.333 249.667L237.667 249.333M241.667 249.333L242.333 249.667L241.667 249.333z"/>
<path style="fill:#8f9094; stroke:none;" d="M243 249L244 250L243 249z"/>
<path style="fill:#f8e5d8; stroke:none;" d="M244 249L245 250L244 249M239.667 250.333L240.333 250.667L239.667 250.333M159 258L159 259L174 259L159 258M184 258L184 259L198 259L184 258M209 258L209 259L215 259L215 275L216 275L216 258L209 258M225 258L225 259L231 259L231 276L232 276L232 258L225 258M241 258L241 259L250 259L241 258M263 258L263 259L272 259L263 258M280 258L280 259L299 259L299 264L300 264L300 258L280 258M303 258L303 283L304 283L304 259L310 259L303 258M328 258L328 259L337 259L328 258z"/>
<path style="fill:#ff9348; stroke:none;" d="M159 259L159 283C164.551 283 173.012 284.548 177.721 280.991C181.623 278.043 179.559 274.819 178.866 271C178.392 268.389 180.004 265.744 179.15 263.214C176.984 256.788 164.122 259 159 259z"/>
<path style="fill:#f8e5d8; stroke:none;" d="M175.667 259.333L176.333 259.667L175.667 259.333z"/>
<path style="fill:#ff9348; stroke:none;" d="M184 259L184 283L190 283L190 276L205 283L201 274C206.017 271.069 206.342 263.247 200.891 260.179C196.399 257.65 188.995 259 184 259z"/>
<path style="fill:#f8e5d8; stroke:none;" d="M200 259L201 260L200 259z"/>
<path style="fill:#ff9348; stroke:none;" d="M209 259C209 264.722 207.584 272.723 210.457 277.895C214.211 284.654 226.128 284.879 229.821 277.956C232.523 272.889 231 264.593 231 259L225 259C225 263.582 226.815 273.194 222.683 276.353C214.012 282.981 215 262.48 215 259L209 259z"/>
<path style="fill:#f8e5d8; stroke:none;" d="M235 265L236 265L240 260C236.76 259.924 235.839 262.081 235 265z"/>
<path style="fill:#ff9348; stroke:none;" d="M248 278L236 275L234 280C238.79 281.951 243.707 284.098 248.956 282.347C261.988 278.001 248.587 268.525 242 267C244.542 262.64 247.928 264.446 252 266L254 261C249.027 258.607 231.597 257.483 236.273 267.945C238.551 273.042 245.354 272.942 248 278z"/>
<path style="fill:#f8e5d8; stroke:none;" d="M251.667 259.333L252.333 259.667L251.667 259.333M261 259L262 260L261 259z"/>
<path style="fill:#ff9348; stroke:none;" d="M270 278L258 275C255.826 288.04 281.371 283.71 275.806 273.108C273.474 268.666 267.182 267.916 264 264L275 266L277 261C271.835 259.117 252.426 257.34 259.032 268.786C261.807 273.596 268.187 272.257 270 278z"/>
<path style="fill:#f8e5d8; stroke:none;" d="M273.667 259.333L274.333 259.667L273.667 259.333z"/>
<path style="fill:#ff9348; stroke:none;" d="M280 259L280 283L299 283L299 278L286 278L286 273L298 273C296.954 266.733 291.18 268 286 268L286 264L299 264L299 259L280 259M304 259L304 283L320 283L320 278L310 278L310 259L304 259z"/>
<path style="fill:#f8e5d8; stroke:none;" d="M326 259L327 260L326 259z"/>
<path style="fill:#ff9348; stroke:none;" d="M335 278L323 275C320.826 288.04 346.371 283.71 340.806 273.108C338.474 268.666 332.182 267.916 329 264L340 266L342 261C336.835 259.117 317.426 257.34 324.032 268.786C326.807 273.596 333.187 272.257 335 278z"/>
<path style="fill:#f8e5d8; stroke:none;" d="M338.667 259.333L339.333 259.667L338.667 259.333M177.667 260.333L178.333 260.667L177.667 260.333M202 260L203 261L202 260M253 260L254 263L255 263L255 260L253 260M259 260L260 261L259 260M275.667 260.333L276.333 260.667L275.667 260.333M324 260L325 261L324 260M340.667 260.333L341.333 260.667L340.667 260.333M203 261L204 262L203 261M258.333 261.667L258.667 262.333L258.333 261.667M323.333 261.667L323.667 262.333L323.333 261.667M179 262L180 263L179 262M204.333 262.667L204.667 263.333L204.333 262.667M276 262L277 263L276 262M341 262L342 263L341 262M171 269L171 268L166 268L166 264L171 264C165.075 261.749 164.097 268.462 171 269M243 263L243 264L246 264L243 263M253.333 263.667L253.667 264.333L253.333 263.667M257 263L257 268L258 268L257 263M266.667 263.333L267.333 263.667L266.667 263.333M322 263L322 268L323 268L322 263M331.667 263.333L332.333 263.667L331.667 263.333z"/>
<path style="fill:#010101; stroke:none;" d="M166 264L166 268L173 267L173 265L166 264z"/>
<path style="fill:#f8e5d8; stroke:none;" d="M172 264L173 265L172 264M190 264L190 271L191 271L190 264z"/>
<path style="fill:#010101; stroke:none;" d="M191 264L191 271C199.553 270.721 199.553 264.279 191 264z"/>
<path style="fill:#f8e5d8; stroke:none;" d="M197 264L198 265L197 264M242 264L243 265L242 264M247.667 264.333L248.333 264.667L247.667 264.333M264.333 264.667L264.667 265.333L264.333 264.667M269.667 264.333L270.333 264.667L269.667 264.333M275 264L276 265L275 264M286 264L286 268L287 268L286 264M329.333 264.667L329.667 265.333L329.333 264.667M334.667 264.333L335.333 264.667L334.667 264.333M340 264L341 265L340 264M198 265L199 266L198 265M250 265L251 266L250 265M252 265L253 266L252 265M272.667 265.333L273.333 265.667L272.667 265.333M337.667 265.333L338.333 265.667L337.667 265.333M179.333 266.667L179.667 267.333L179.333 266.667M205 266L205 269L206 269L205 266M242 266L243 267L242 266M265 266L266 267L265 266M330 266L331 267L330 266M172 267L173 268L172 267M235.333 267.667L235.667 268.333L235.333 267.667M244.667 267.333L245.333 267.667L244.667 267.333M266.667 267.333L267.333 267.667L266.667 267.333M331.667 267.333L332.333 267.667L331.667 267.333M178 268L179 269L178 268M247.667 268.333L248.333 268.667L247.667 268.333M269.667 268.333L270.333 268.667L269.667 268.333M297 268L298 269L297 268M334.667 268.333L335.333 268.667L334.667 268.333M177.333 269.667L177.667 270.333L177.333 269.667M198 269L199 270L198 269M236 269L237 270L236 269M250 269L251 270L250 269M258 269L259 270L258 269M272.667 269.333L273.333 269.667L272.667 269.333M323 269L324 270L323 269M337.667 269.333L338.333 269.667L337.667 269.333M197 270L198 271L197 270M237 270L238 271L237 270M252 270L253 271L252 270M259 270L260 271L259 270M274 270L275 271L274 270M324 270L325 271L324 270M339 270L340 271L339 270M178 271L179 272L178 271M204 271L205 272L204 271M238 271L239 272L238 271M253 271L254 272L253 271M260.667 271.333L261.333 271.667L260.667 271.333M275 271L276 272L275 271M325.667 271.333L326.333 271.667L325.667 271.333M340 271L341 272L340 271M179 272L180 273L179 272M240.667 272.333L241.333 272.667L240.667 272.333M262.667 272.333L263.333 272.667L262.667 272.333M276.333 272.667L276.667 273.333L276.333 272.667M327.667 272.333L328.333 272.667L327.667 272.333M341.333 272.667L341.667 273.333L341.333 272.667M165 273L165 278L166 278L167 273L165 273z"/>
<path style="fill:#010101; stroke:none;" d="M166 278L174 275C169.8 273.021 166.85 272.912 166 278z"/>
<path style="fill:#f8e5d8; stroke:none;" d="M171.667 273.333L172.333 273.667L171.667 273.333M180.333 273.667L180.667 274.333L180.333 273.667M203 273L204 274L203 273M243.667 273.333L244.333 273.667L243.667 273.333M254.333 273.667L254.667 274.333L254.333 273.667M265 273L265 274L268 274L265 273M286 273L286 278L287 278L287 274L298 274L286 273M330 273L330 274L333 274L330 273M173 274L174 275L173 274M201 274L201 276L203 274L201 274M224.333 274.667L224.667 275.333L224.333 274.667M236 274L237 275L236 274M246 274L247 275L246 274M258 274L259 275L258 274M268.667 274.333L269.333 274.667L268.667 274.333M323 274L324 275L323 274M333.667 274.333L334.333 274.667L333.667 274.333M235 275L236 276L235 275M237.667 275.333L238.333 275.667L237.667 275.333M247 275L246 278L247 275M257.333 275.667L257.667 276.333L257.333 275.667M260 275L261 276L260 275M322.333 275.667L322.667 276.333L322.333 275.667M325 275L326 276L325 275M173 276L174 277L173 276M190 276L190 283L191 283L191 277L195 277L190 276M209.333 276.667L209.667 277.333L209.333 276.667M216 276L217 277L216 276M223 276L224 277L223 276M239.667 276.333L240.333 276.667L239.667 276.333M254 276L254 279L255 279L254 276M261.667 276.333L262.333 276.667L261.667 276.333M326.667 276.333L327.333 276.667L326.667 276.333M172 277L173 278L172 277M180.333 277.667L180.667 278.333L180.333 277.667M195 277L196 278L195 277M202 277L203 278L202 277M218 277L219 278L218 277M221.667 277.333L222.333 277.667L221.667 277.333M230.333 277.667L230.667 278.333L230.333 277.667M234 277L235 278L234 277M241.667 277.333L242.333 277.667L241.667 277.333M256 277L256 280L257 280L256 277M263 277L263 278L266 278L263 277M268.667 277.333L269.333 277.667L268.667 277.333M310 277L310 278L320 278L310 277M321 277L320 283L321 283L321 277M328 277L328 278L331 278L328 277M333.667 277.333L334.333 277.667L333.667 277.333M196.333 278.667L196.667 279.333L196.333 278.667M203.333 278.667L203.667 279.333L203.333 278.667M210.333 278.667L210.667 279.333L210.333 278.667M276.333 278.667L276.667 279.333L276.333 278.667M299 278L299 283L300 283L299 278M341.333 278.667L341.667 279.333L341.333 278.667M445.333 278.667L445.667 279.333L445.333 278.667M54.3333 279.667L54.6667 280.333L54.3333 279.667M229 279L230 280L229 279M233 279L234 280L233 279M253.333 279.667L253.667 280.333L253.333 279.667M179 280L180 281L179 280M197.333 280.667L197.667 281.333L197.333 280.667M204 280L205 281L204 280M211 280L212 281L211 280M228 280L229 281L228 280M234.667 280.333L235.333 280.667L234.667 280.333M257 280L258 281L257 280M275 280L276 281L275 280M322 280L323 281L322 280M340 280L341 281L340 280M55 281L56 282L55 281M177.667 281.333L178.333 281.667L177.667 281.333M205.333 281.667L205.667 282.333L205.333 281.667M212.667 281.333L213.333 281.667L212.667 281.333M227 281L228 282L227 281M236.667 281.333L237.333 281.667L236.667 281.333M251.667 281.333L252.333 281.667L251.667 281.333M258.667 281.333L259.333 281.667L258.667 281.333M274 281L275 282L274 281M323.667 281.333L324.333 281.667L323.667 281.333M339 281L340 282L339 281M444 281L445 282L444 281M56 282L57 283L56 282M175.667 282.333L176.333 282.667L175.667 282.333M198 282L199 283L198 282M214.667 282.333L215.333 282.667L214.667 282.333M225 282L226 283L225 282M238.667 282.333L239.333 282.667L238.667 282.333M249.667 282.333L250.333 282.667L249.667 282.333M260 282L260 283L263 283L260 282M271.667 282.333L272.333 282.667L271.667 282.333M325 282L325 283L328 283L325 282M336.667 282.333L337.333 282.667L336.667 282.333M443 282L444 283L443 282M58.6667 283.333L59.3333 283.667L58.6667 283.333M217 283L217 284L223 284L217 283M242 283L242 284L248 284L242 283M264 283L264 284L270 284L264 283M287 283L287 284L294 284L287 283M329 283L329 284L335 284L329 283M440.667 283.333L441.333 283.667L440.667 283.333M134 304L134 307L135 307L134 304M409.333 305.667L409.667 306.333L409.333 305.667M365.333 306.667L365.667 307.333L365.333 306.667M90 307L91 308L90 307M133.333 307.667L133.667 308.333L133.333 307.667M91 308L92 309L91 308M366 308L367 309L366 308M408 308L409 309L408 308M92 309L93 310L92 309M131.667 309.333L132.333 309.667L131.667 309.333M367 309L368 310L367 309M406.667 309.333L407.333 309.667L406.667 309.333M94 310L94 311L97 311L94 310M128 310L128 311L131 311L128 310M369 310L369 311L372 311L369 310M403.667 310.333L404.333 310.667L403.667 310.333z"/>
</svg>
